<svg width="18" height="22" viewBox="0 0 18 22" fill="none" xmlns="http://www.w3.org/2000/svg">
<path d="M11 0.880615H3C2.46957 0.880615 1.96086 1.09133 1.58579 1.4664C1.21071 1.84147 1 2.35018 1 2.88062V18.8806C1 19.411 1.21071 19.9198 1.58579 20.2948C1.96086 20.6699 2.46957 20.8806 3 20.8806H15C15.5304 20.8806 16.0391 20.6699 16.4142 20.2948C16.7893 19.9198 17 19.411 17 18.8806V6.88062L11 0.880615Z" stroke="#FAFAFA" stroke-linecap="round" stroke-linejoin="round"/>
<path d="M11 0.880615V6.88061H17" stroke="#FAFAFA" stroke-linecap="round" stroke-linejoin="round"/>
<path d="M13 11.8806H5" stroke="#FAFAFA" stroke-linecap="round" stroke-linejoin="round"/>
<path d="M13 15.8806H5" stroke="#FAFAFA" stroke-linecap="round" stroke-linejoin="round"/>
<path d="M7 7.88062H6H5" stroke="#FAFAFA" stroke-linecap="round" stroke-linejoin="round"/>
</svg>
